<?xml version="1.0" encoding="utf-8"?>
<!-- Generator: Adobe Illustrator 16.0.4, SVG Export Plug-In . SVG Version: 6.00 Build 0)  -->
<!DOCTYPE svg PUBLIC "-//W3C//DTD SVG 1.1//EN" "http://www.w3.org/Graphics/SVG/1.1/DTD/svg11.dtd">
<svg version="1.1" id="Layer_1" xmlns="http://www.w3.org/2000/svg" xmlns:xlink="http://www.w3.org/1999/xlink" x="0px" y="0px"
	 width="55.75px" height="56.25px" viewBox="36.332 -9.32 55.75 56.25" enable-background="new 36.332 -9.32 55.75 56.25"
	 xml:space="preserve">
<circle fill="#231F20" cx="64.542" cy="18.81" r="26.5"/>
<ellipse opacity="0.1" fill="#FFFFFF" cx="64.542" cy="9.93" rx="24.79" ry="17.88"/>
<g>
	<path fill="#FFFFFF" d="M50.282,3.542V2.817h1.912v4.201c0.579-0.473,1.226-0.71,1.941-0.71c0.656,0,1.274,0.203,1.854,0.608
		c0.309,0.222,0.558,0.57,0.746,1.043c0.188,0.473,0.283,1.048,0.283,1.724c0,1.284-0.319,2.25-0.956,2.897
		c-0.724,0.734-1.642,1.101-2.752,1.101c-0.416,0-0.828-0.034-1.238-0.102c-0.411-0.067-0.684-0.145-0.818-0.231V3.542H50.282z
		 M52.194,7.525v5.345c0.28,0.067,0.584,0.101,0.913,0.101c0.956,0,1.689-0.28,2.201-0.84s0.768-1.352,0.768-2.375
		c0-1.188-0.348-1.965-1.043-2.332c-0.338-0.183-0.746-0.275-1.224-0.275S52.793,7.274,52.194,7.525z"/>
	<path fill="#FFFFFF" d="M60.161,13.739c-1.285,0-1.965-0.507-2.042-1.521c-0.01-0.067-0.014-0.135-0.014-0.203
		c0-0.811,0.487-1.352,1.463-1.623c0.541-0.135,1.583-0.29,3.128-0.463V8.814c0-1.052-0.55-1.579-1.651-1.579
		c-0.792,0.01-1.632,0.193-2.52,0.55l-0.247-0.623l0.145-0.058c0.753-0.328,1.328-0.526,1.724-0.594
		c0.396-0.068,0.686-0.104,0.869-0.109c0.183-0.005,0.359-0.002,0.529,0.007c0.168,0.01,0.388,0.053,0.659,0.13
		s0.504,0.186,0.703,0.326c0.198,0.14,0.369,0.35,0.514,0.63s0.217,0.613,0.217,1v4.461h1.115v0.724H62.84l-0.145-0.55
		C61.826,13.535,60.981,13.739,60.161,13.739z M60.421,13.072c0.733,0,1.492-0.164,2.274-0.492v-2.071
		c-1.449,0.048-2.385,0.145-2.81,0.29c-0.328,0.087-0.56,0.244-0.695,0.471c-0.135,0.227-0.203,0.408-0.203,0.543
		c0,0.136,0,0.227,0,0.275c0.029,0.348,0.179,0.599,0.449,0.753C59.707,12.995,60.035,13.072,60.421,13.072z"/>
	<path fill="#FFFFFF" d="M68.807,7.22c-0.82,0-1.484,0.273-1.991,0.818c-0.507,0.546-0.76,1.311-0.76,2.296
		c0,1.709,0.796,2.563,2.39,2.563c0.617,0,1.135-0.051,1.549-0.152c0.416-0.102,0.643-0.167,0.682-0.196l0.203,0.681
		c-0.223,0.145-0.59,0.266-1.102,0.362s-0.975,0.145-1.391,0.145c-0.415,0-0.791-0.043-1.129-0.13
		c-0.338-0.087-0.679-0.241-1.021-0.464c-0.343-0.222-0.616-0.572-0.818-1.05c-0.203-0.478-0.304-1.06-0.304-1.746
		c0-1.265,0.323-2.221,0.97-2.868c0.724-0.744,1.637-1.115,2.738-1.115c0.348,0,0.717,0.046,1.107,0.138s0.693,0.234,0.905,0.427
		v1.897l-0.71,0.101l-0.072-1.521C69.656,7.283,69.242,7.22,68.807,7.22z"/>
	<path fill="#FFFFFF" d="M75.571,7.162V6.438h3.042v0.724h-1.361l-2.434,2.666l2.752,3.128h1.376v0.724h-1.84l-3.229-3.853v3.128
		h1.086v0.724h-2.926v-0.724h0.898V3.542h-0.971V2.817h1.912v7.011l2.288-2.666H75.571z"/>
	<path fill="#FFFFFF" d="M63.336,22.016l0.282-0.014l0.022,0.289c-0.005,0-0.039,0.008-0.102,0.021
		c-0.145,0.034-0.307,0.051-0.485,0.051c-0.164-0.01-0.313-0.037-0.449-0.083s-0.261-0.143-0.376-0.29
		c-0.116-0.146-0.174-0.336-0.174-0.568V19.17h-0.37l0.058-0.348l0.319-0.065l0.058-0.695l0.406-0.036v0.724h0.876v0.42h-0.876
		v2.129C62.525,21.778,62.795,22.016,63.336,22.016z"/>
	<path fill="#FFFFFF" d="M65.614,22.4c-0.505,0-0.913-0.145-1.224-0.435c-0.312-0.289-0.467-0.732-0.467-1.328
		c0-0.597,0.166-1.064,0.496-1.406c0.331-0.34,0.747-0.51,1.25-0.51c0.502,0,0.91,0.145,1.224,0.435
		c0.314,0.29,0.471,0.732,0.471,1.329c0,0.596-0.166,1.064-0.496,1.404C66.536,22.23,66.119,22.4,65.614,22.4z M65.658,19.141
		c-0.36,0-0.661,0.131-0.902,0.391c-0.241,0.262-0.362,0.615-0.362,1.062s0.115,0.789,0.344,1.028
		c0.229,0.238,0.525,0.358,0.887,0.358c0.362,0,0.664-0.129,0.905-0.388c0.241-0.258,0.362-0.61,0.362-1.057
		c0-0.447-0.116-0.791-0.347-1.032C66.313,19.262,66.017,19.141,65.658,19.141z"/>
	<path fill="#FFFFFF" d="M56.209,33.494l0.753-0.038l0.058,0.772c-0.013,0-0.103,0.02-0.271,0.059
		c-0.386,0.09-0.818,0.135-1.294,0.135c-0.438-0.025-0.837-0.1-1.197-0.223c-0.36-0.122-0.695-0.379-1.004-0.771
		c-0.309-0.393-0.463-0.898-0.463-1.517v-6.007h-0.985l0.154-0.926l0.85-0.174l0.154-1.854l1.082-0.097v1.932h2.337v1.119h-2.337
		v5.678C54.046,32.858,54.767,33.494,56.209,33.494z"/>
	<path fill="#FFFFFF" d="M62.283,34.518c-1.346,0-2.433-0.386-3.264-1.158s-1.246-1.953-1.246-3.544c0-1.59,0.441-2.839,1.323-3.746
		s1.992-1.362,3.332-1.362c1.339,0,2.427,0.387,3.264,1.159c0.836,0.772,1.255,1.954,1.255,3.544s-0.441,2.839-1.323,3.746
		C64.742,34.065,63.628,34.518,62.283,34.518z M62.398,25.828c-0.959,0-1.761,0.348-2.404,1.043
		c-0.644,0.695-0.965,1.639-0.965,2.828c0,1.191,0.306,2.105,0.917,2.742c0.611,0.639,1.4,0.957,2.366,0.957
		c0.966,0,1.77-0.345,2.414-1.033c0.644-0.689,0.966-1.629,0.966-2.82c0-1.19-0.309-2.107-0.927-2.752
		C64.146,26.151,63.357,25.828,62.398,25.828z"/>
	<path fill="#FFFFFF" d="M68.201,25.75v-0.965h2.55V25.5c0.812-0.593,1.673-0.889,2.588-0.889c0.875,0,1.699,0.27,2.472,0.811
		c0.412,0.297,0.744,0.76,0.994,1.391c0.252,0.631,0.377,1.397,0.377,2.299c0,1.712-0.425,3-1.274,3.861
		c-0.966,0.979-2.214,1.469-3.747,1.469c-0.45,0-0.92-0.033-1.409-0.098v3.959h1.642v0.967h-4.094v-0.967h1.197V25.75H68.201z
		 M70.751,26.291v7.068c0.373,0.09,0.778,0.135,1.217,0.135c1.274,0,2.253-0.373,2.935-1.119c0.684-0.747,1.024-1.803,1.024-3.168
		c0-1.584-0.464-2.619-1.391-3.109c-0.45-0.244-0.972-0.367-1.564-0.367S71.639,25.918,70.751,26.291z"/>
</g>
<circle fill="none" stroke="#FFFFFF" stroke-width="0.25" stroke-miterlimit="3" cx="64.542" cy="18.81" r="24"/>
</svg>
