<?xml version="1.0" encoding="utf-8"?>
<!-- Generator: Adobe Illustrator 16.0.4, SVG Export Plug-In . SVG Version: 6.00 Build 0)  -->
<!DOCTYPE svg PUBLIC "-//W3C//DTD SVG 1.1//EN" "http://www.w3.org/Graphics/SVG/1.1/DTD/svg11.dtd">
<svg version="1.1" id="Layer_1" xmlns="http://www.w3.org/2000/svg" xmlns:xlink="http://www.w3.org/1999/xlink" x="0px" y="0px"
	 width="290.5px" height="257.25px" viewBox="0 -85.75 290.5 257.25" enable-background="new 0 -85.75 290.5 257.25"
	 xml:space="preserve">
<g opacity="0.4">
	<path fill="#FFFFFF" d="M224.265,33.898c0,0-0.012,0.485-0.033,1.425c-0.04,0.938-0.004,2.333-0.176,4.146
		c-0.229,3.623-0.811,8.965-2.623,15.516c-0.232,0.818-0.474,1.656-0.715,2.518c-0.285,0.848-0.58,1.715-0.879,2.604
		c-0.281,0.896-0.646,1.784-1.004,2.698c-0.363,0.91-0.703,1.854-1.144,2.78c-1.613,3.764-3.685,7.697-6.269,11.666
		c-5.144,7.93-12.468,16.001-22.128,22.599c-4.837,3.275-10.241,6.16-16.124,8.439c-5.877,2.293-12.267,3.859-18.929,4.695
		c-0.83,0.129-1.671,0.182-2.515,0.256c-0.844,0.068-1.688,0.139-2.536,0.205c-0.851,0.027-1.704,0.057-2.562,0.084l-1.287,0.041
		c-0.461,0.006-0.861-0.012-1.298-0.016c-0.854-0.014-1.713-0.029-2.573-0.043c-0.862-0.025-1.739-0.109-2.613-0.162
		c-1.756-0.082-3.492-0.334-5.248-0.535c-3.492-0.521-7.015-1.176-10.482-2.188c-1.752-0.441-3.458-1.066-5.193-1.623
		c-0.856-0.311-1.705-0.652-2.56-0.979l-1.282-0.496l-1.26-0.559c-6.756-2.914-13.2-6.869-19.058-11.689
		c-2.942-2.396-5.662-5.092-8.264-7.912c-2.587-2.839-4.933-5.914-7.121-9.111c-2.175-3.21-4.068-6.623-5.781-10.133
		c-1.694-3.521-3.06-7.204-4.236-10.946c-1.161-3.755-1.972-7.614-2.591-11.502c-0.58-3.897-0.83-7.839-0.886-11.78
		c-0.003-15.776,4.782-31.519,13.489-44.364c2.188-3.199,4.535-6.273,7.122-9.112c2.602-2.821,5.323-5.512,8.262-7.915
		c5.859-4.82,12.304-8.774,19.061-11.691l1.26-0.558l1.282-0.497c0.856-0.325,1.704-0.667,2.561-0.976
		c1.735-0.559,3.441-1.183,5.193-1.624c3.468-1.012,6.991-1.667,10.484-2.188c1.755-0.202,3.495-0.454,5.241-0.535
		c0.871-0.053,1.739-0.135,2.605-0.161c0.868-0.015,1.733-0.031,2.597-0.045c0.438-0.005,0.846-0.021,1.306-0.017l1.276,0.042
		c0.851,0.028,1.695,0.056,2.541,0.083c0.851,0.069,1.699,0.138,2.545,0.207c0.849,0.073,1.691,0.126,2.521,0.255
		c6.663,0.836,13.052,2.404,18.93,4.697c5.883,2.281,11.289,5.167,16.124,8.441c9.661,6.599,16.982,14.673,22.13,22.603
		c2.582,3.968,4.653,7.904,6.264,11.667c0.441,0.924,0.779,1.87,1.146,2.781c0.357,0.914,0.722,1.802,1.005,2.698
		c0.299,0.89,0.592,1.757,0.877,2.604c0.243,0.86,0.481,1.699,0.715,2.516c1.814,6.553,2.395,11.894,2.625,15.518
		c0.172,1.811,0.133,3.208,0.176,4.147C224.255,33.413,224.265,33.898,224.265,33.898z M224.265,33.898c0,0-0.013-0.484-0.037-1.424
		c-0.045-0.938-0.014-2.336-0.188-4.146c-0.241-3.621-0.839-8.959-2.672-15.5c-1.815-6.521-4.858-14.302-10.116-22.168
		c-5.209-7.851-12.558-15.861-22.271-22.239c-4.852-3.176-10.252-5.95-16.104-8.116c-5.849-2.178-12.18-3.625-18.757-4.346
		c-0.82-0.116-1.646-0.153-2.475-0.213c-0.826-0.054-1.659-0.108-2.492-0.163c-0.846-0.015-1.691-0.03-2.542-0.045l-1.277-0.022
		c-0.392,0.002-0.837,0.025-1.255,0.037c-0.848,0.028-1.698,0.056-2.551,0.083c-0.853,0.039-1.703,0.134-2.559,0.199
		c-1.714,0.104-3.419,0.381-5.138,0.604c-3.42,0.566-6.862,1.26-10.243,2.304c-1.708,0.458-3.369,1.096-5.057,1.668
		c-0.834,0.316-1.658,0.663-2.489,0.994l-1.246,0.503l-1.223,0.565c-13.104,5.91-24.926,15.793-33.198,28.379
		c-2.084,3.133-3.883,6.462-5.517,9.874c-1.628,3.419-2.94,6.992-4.068,10.62c-1.113,3.638-1.884,7.378-2.473,11.144l-0.356,2.838
		c-0.134,0.948-0.157,1.889-0.242,2.833c-0.188,1.848-0.158,3.875-0.227,5.737c0.043,3.817,0.272,7.634,0.823,11.409
		c0.588,3.766,1.361,7.506,2.473,11.143c2.203,7.278,5.457,14.205,9.583,20.498c8.273,12.585,20.092,22.476,33.199,28.38
		l1.223,0.566l1.247,0.502c0.832,0.332,1.656,0.68,2.489,0.996c1.688,0.57,3.349,1.209,5.058,1.666
		c3.381,1.043,6.824,1.74,10.244,2.305c1.718,0.225,3.427,0.5,5.13,0.605c0.853,0.062,1.696,0.16,2.552,0.197
		c0.86,0.027,1.718,0.059,2.573,0.086c0.419,0.012,0.872,0.035,1.265,0.037l1.266-0.021c0.844-0.014,1.686-0.029,2.521-0.043
		c0.836-0.055,1.67-0.109,2.502-0.164c0.83-0.061,1.66-0.098,2.479-0.213c6.578-0.723,12.909-2.172,18.759-4.35
		c5.854-2.166,11.254-4.939,16.104-8.115c9.715-6.379,17.062-14.39,22.271-22.241c2.605-3.937,4.73-7.836,6.346-11.593
		c0.444-0.924,0.785-1.864,1.151-2.773c0.36-0.912,0.729-1.798,1.013-2.691c0.303-0.887,0.596-1.754,0.883-2.6
		c0.248-0.859,0.488-1.695,0.722-2.512c1.834-6.542,2.431-11.878,2.673-15.5c0.176-1.812,0.145-3.208,0.188-4.146
		C224.253,34.383,224.265,33.898,224.265,33.898z"/>
</g>
<g>
	<path d="M224.265,33.898c0,0-0.012,0.485-0.033,1.424c-0.04,0.939-0.004,2.334-0.176,4.147c-0.229,3.623-0.811,8.965-2.623,15.516
		c-0.232,0.817-0.474,1.655-0.715,2.516c-0.285,0.849-0.58,1.716-0.879,2.604c-0.281,0.896-0.646,1.784-1.004,2.698
		c-0.363,0.91-0.703,1.855-1.144,2.779c-1.613,3.765-3.685,7.699-6.269,11.666c-5.144,7.931-12.468,16.001-22.128,22.601
		c-4.837,3.273-10.241,6.16-16.124,8.438c-5.877,2.295-12.267,3.861-18.929,4.695c-0.83,0.131-1.671,0.182-2.515,0.258
		c-0.844,0.066-1.688,0.137-2.536,0.205c-0.851,0.027-1.705,0.057-2.562,0.084l-1.287,0.041c-0.461,0.004-0.861-0.014-1.298-0.016
		c-0.854-0.016-1.713-0.031-2.573-0.045c-0.862-0.025-1.739-0.107-2.613-0.16c-1.756-0.082-3.492-0.336-5.248-0.535
		c-3.492-0.523-7.015-1.176-10.482-2.189c-1.752-0.439-3.458-1.064-5.193-1.621c-0.856-0.312-1.705-0.652-2.56-0.979l-1.282-0.496
		l-1.26-0.559c-6.756-2.916-13.2-6.869-19.058-11.689c-2.942-2.398-5.662-5.094-8.264-7.914c-2.587-2.839-4.933-5.914-7.121-9.11
		c-2.175-3.21-4.068-6.623-5.781-10.132c-1.694-3.522-3.06-7.205-4.236-10.947c-1.161-3.754-1.972-7.614-2.591-11.502
		c-0.58-3.898-0.83-7.839-0.886-11.78C64.894,18.12,69.679,2.377,78.386-10.468c2.188-3.199,4.535-6.273,7.122-9.112
		c2.602-2.821,5.323-5.512,8.262-7.915c5.859-4.82,12.304-8.774,19.061-11.691l1.26-0.558l1.282-0.497
		c0.856-0.325,1.704-0.667,2.561-0.976c1.735-0.559,3.441-1.183,5.193-1.624c3.468-1.012,6.991-1.667,10.484-2.188
		c1.755-0.202,3.495-0.454,5.241-0.535c0.871-0.053,1.739-0.135,2.605-0.161c0.868-0.015,1.733-0.031,2.597-0.045
		c0.438-0.005,0.846-0.021,1.306-0.017l1.276,0.042c0.851,0.028,1.696,0.056,2.541,0.083c0.852,0.069,1.701,0.138,2.547,0.207
		c0.847,0.073,1.689,0.126,2.521,0.255c6.663,0.836,13.051,2.404,18.929,4.697c5.883,2.281,11.289,5.167,16.125,8.441
		c9.66,6.599,16.981,14.673,22.129,22.603c2.582,3.968,4.653,7.904,6.264,11.667c0.441,0.924,0.779,1.87,1.146,2.781
		c0.357,0.914,0.722,1.802,1.005,2.698c0.299,0.89,0.592,1.757,0.877,2.604c0.243,0.86,0.481,1.699,0.715,2.516
		c1.814,6.553,2.395,11.894,2.625,15.518c0.172,1.811,0.133,3.208,0.176,4.147C224.255,33.413,224.265,33.898,224.265,33.898z
		 M224.265,33.898c0,0-0.013-0.484-0.037-1.424c-0.045-0.938-0.014-2.336-0.188-4.146c-0.241-3.621-0.839-8.959-2.672-15.5
		c-1.815-6.521-4.858-14.302-10.116-22.168c-5.209-7.851-12.558-15.861-22.271-22.239c-4.852-3.176-10.252-5.95-16.104-8.116
		c-5.849-2.178-12.18-3.625-18.757-4.346c-0.82-0.116-1.646-0.153-2.475-0.213c-0.826-0.054-1.659-0.108-2.492-0.163
		c-0.846-0.015-1.692-0.03-2.542-0.045l-1.277-0.022c-0.392,0.002-0.837,0.025-1.255,0.037c-0.848,0.028-1.697,0.056-2.551,0.083
		c-0.853,0.039-1.703,0.134-2.559,0.199c-1.714,0.104-3.419,0.381-5.138,0.604c-3.42,0.566-6.862,1.26-10.243,2.304
		c-1.708,0.458-3.369,1.096-5.057,1.668c-0.834,0.316-1.658,0.663-2.489,0.994l-1.246,0.503l-1.223,0.565
		c-13.104,5.91-24.926,15.793-33.198,28.379c-2.084,3.133-3.883,6.462-5.517,9.874c-1.628,3.419-2.94,6.992-4.068,10.62
		c-1.113,3.638-1.884,7.378-2.473,11.144l-0.356,2.838c-0.134,0.948-0.157,1.889-0.242,2.833c-0.188,1.848-0.158,3.875-0.227,5.737
		c0.043,3.817,0.272,7.634,0.823,11.409c0.588,3.766,1.361,7.506,2.473,11.143c2.203,7.278,5.457,14.205,9.583,20.498
		c8.273,12.585,20.092,22.476,33.199,28.38l1.223,0.566l1.247,0.502c0.832,0.332,1.656,0.68,2.489,0.996
		c1.688,0.57,3.349,1.209,5.058,1.666c3.381,1.043,6.824,1.74,10.244,2.305c1.718,0.225,3.427,0.5,5.13,0.605
		c0.853,0.062,1.696,0.16,2.552,0.197c0.86,0.027,1.718,0.059,2.573,0.086c0.419,0.012,0.872,0.035,1.265,0.037l1.266-0.021
		c0.844-0.014,1.686-0.029,2.521-0.043c0.836-0.055,1.67-0.109,2.502-0.164c0.83-0.061,1.66-0.098,2.479-0.213
		c6.578-0.723,12.909-2.172,18.759-4.35c5.854-2.166,11.254-4.939,16.104-8.115c9.715-6.379,17.062-14.39,22.271-22.241
		c2.605-3.937,4.73-7.836,6.346-11.593c0.444-0.924,0.785-1.864,1.151-2.773c0.36-0.912,0.729-1.798,1.013-2.691
		c0.303-0.887,0.597-1.754,0.883-2.6c0.248-0.859,0.488-1.695,0.722-2.512c1.834-6.542,2.431-11.878,2.673-15.5
		c0.176-1.812,0.145-3.208,0.188-4.146C224.253,34.383,224.265,33.898,224.265,33.898z"/>
</g>
<path fill="none" stroke="#000000" stroke-width="0.3121" stroke-miterlimit="10" d="M155.759,93.668"/>
<path fill="none" stroke="#000000" stroke-width="0.3121" stroke-miterlimit="10" d="M153.91,95.316"/>
<path fill="none" stroke="#000000" stroke-width="0.3121" stroke-miterlimit="10" d="M152.548,99.662"/>
<path fill="none" stroke="#000000" stroke-width="0.3121" stroke-miterlimit="10" d="M153.655,101.682"/>
<path fill="none" stroke="#000000" stroke-width="0.3121" stroke-miterlimit="10" d="M153.541,103.854"/>
<path fill="none" stroke="#000000" stroke-width="0.3121" stroke-miterlimit="10" d="M158.509,104.967"/>
<path opacity="0.3" fill="#B0B0B0" enable-background="new    " d="M175.212,57.874c0,0-0.82,5.75-2.465,7.394
	c0,0-6.898,9.692-3.449,23c0,0-0.984-1.645-2.3-6.736c0,0,0.164-1.561-3.778-0.492c0,0-1.396,1.066-2.465,0c0,0-1.066-0.984-3.039,0
	c0,0-2.712-1.231-3.943,0c0,0-2.547-1.149-4.764,1.066c0,0-3.369-0.656-4.354,1.151c0,0-2.137,0-2.137,2.136
	c0,0-2.629,1.068-0.903,3.779c0,0,2.218,11.746,13.39,12.648c0,0,3.204,1.396,18.646,2.629c0,0,3.205,5.012,7.682,7.682
	c0,0-2.177,7.846,5.381,5.381c0,0,0.328,0.959,3.779,0.479c0,0,5.824,2.301,5.824-5.824c0,0,3.014-0.355,9.043-7.715
	c0,0,0.248-1.066,5.67,0.658c0,0,15.195,7.393,25.136,3.203c0,0,16.513-7.064,2.629-18.4c0,0,0.41-1.561-2.136-2.139
	c0,0,0.574-2.133-1.314-2.133c0,0,0.575-2.466-3.285-2.466c0,0,0-2.053-4.684-2.875c0,0-2.382-3.121-4.354-1.561
	c0,0-1.932-2.178-3.287-0.822c0,0-1.52-1.107-2.629,0c0,0-0.779,0.863-1.641,0c0,0-1.029-1.026-2.055,0c0,0-1.686,2.877-1.686,1.686
	c0,0-0.123-10.968-8.502-19.346c0,0-4.396-9.694-10.535-16.676c0,0,2.074-1.645,4.375-1.645c0,0,0.82-0.082,3.943-2.218
	c0,0,17.412-11.007,15.854-24.479c0,0-1.768-1.52-2.875,1.232c0,0-2.383,0.739-2.383,5.01c0,0-1.643,1.315-3.121,4.683
	c0,0-1.286,2.683-6.981,0c0,0-1.631-2.574-8.812,0c0,0-4.332,1.807-4.332,0c0,0,0.277-8.556,3.066-11.345
	c0,0,2.408-0.868,2.408-7.057c0,0,0.549-3.888-10.296,6.956c0,0-10.733-1.096-11.392,5.476c0,0-1.096-4.381-14.678-14.676
	c0,0-17.523-10.735-22.781-10.735c0,0-12.267-15.334-13.363-22.125c0,0-3.505-1.313,1.096,14.02c0,0-9.858-5.039-4.162,4.162
	c0,0-6.462-2.082,0,4.381c0,0,1.205,29.025,13.801,41.621c0,0-6.792,2.191-26.178,26.177c0,0-6.024,4.491-18.949,4.491
	c0,0,5.696,5.039,13.363,7.229c0,0,24.562,7.832,66.375-20.371C166.67,54.37,173.239,57.874,175.212,57.874z"/>
<path fill="#161616" d="M196.335,109.977c0,0,14.364-6.43,10.422-22.857c0,0,4.437-2.3,0.984-10.68c0,0,3.236-4.78-4.305-12.321
	c0,0-4.84-15.607-14.644-22.181l-0.438-15.771c0,0,0.264-3.971,0.697-5.743c0.434-1.771,0,0,0,0s-1.47,2.637-1.47,0
	c0,0-0.106,16.265-9.772,9.771c0,0-4.799-18.147-32.567-31.496c-27.769-13.35,0,0,0,0s4.204,2.668,0,1.678
	c0,0,12.14,4.432,20.397,18.89c0,0,3.317,9.201-1.281,4.6c0,0-27.089-25.279-31.68-31.679c-4.59-6.399,0,0,0,0
	s-9.937-9.808-10.042-12.845c0,0,0.986,11.007,47.152,53.396c0,0,1.446,5.135,4.688,8.379c0,0,3.603,8.027,1.354,15.442
	c0,0,1.854-0.328-1.354,8.708c0,0-5.672,4.602-5.18,16.594c0,0-0.72,22.716,12.209,28.115c0,0,1.854-10.395,11.7-6.635
	C193.207,103.342,196.335,105.758,196.335,109.977z"/>
<path opacity="0.6" fill="#FFFFFF" enable-background="new    " d="M93.558,70.196c0,0,24.438,16.923,78.429-20.865
	c0,0,4.143-0.821,1.137-6.735c0,0-5.306-4.601-3.169-9.858c0,0-47.317-43.045-47.317-53.56c0,0-0.492,3.943,5.422,14.787
	c0,0-5.34-4.437-5.34-5.34c0,0,0.739,3.204,3.04,5.503l-4.436-2.628c0,0,11.389,14.51,20.481,20.481
	c9.092,5.97,0.385,0.385,0.385,0.385s-9.776-4.848-13.966-9.037c0,0,10.679,12.323,15.115,15.115c0,0-5.961-2.588-9.452-6.078
	c0,0,4.6,7.152,12.694,12.693c0,0-7.514-2.179-9.65-4.314c0,0,5.257,6.078,10.844,8.872c0,0-4.929,1.644-7.394-0.821
	c0,0,8.543,6.735,12.486,6.735c0,0-7.558,1.97-10.679-1.149c0,0,3.449,4.271,9.693,4.271c0,0-4.929,1.642-10.515,0
	c0,0,3.942,2.627,9.856,2.627c0,0-8.707,3.778-14.128,1.314c0,0,2.792,2.629,10.186,1.643c0,0-12.65,3.779-16.593,3.779
	c0,0,6.079,1.314,12.814,0c0,0-8.05,4.436-14.622,4.436c0,0,6.243,0,8.872,0c0,0-19.079,11.172-25.958,11.172
	c-6.88,0,10.186,1.315,22.836-5.256c0,0-22.413,12.572-30.887,10.516c0,0,7.886,2.792,13.801,0.984
	C117.545,69.868,104.73,74.631,93.558,70.196z"/>
<path fill="#B0B0B0" d="M158.841,10.229c0,0-5.809-7.722-22.565-13.636l4.519,4.517c0,0,5.383,0.919,6.764,2.3h-4.547l2.836,2.834
	c0,0,5.605-1.253,6.859,0c0,0-5.643,0.37-5.643,1.52l1.974,1.861C149.036,9.625,151.669,6.45,158.841,10.229z"/>
<path opacity="0.6" fill="#FFFFFF" enable-background="new    " d="M171.987,22.824c0,0,10.016,10.076,8.044,15.772
	c0,0,7.667-0.876,7.667,7.667c0,0-3.312-27.518,3.066-33.898c0,0-2.189-0.494-5.256,9.583l-0.928-3.943c0,0,0,4.6,0,9.639
	c0,0-3.206-4.382-3.206-7.667c0,0-0.343,2.464-0.171,6.599c0,0-2.27-1.999-2.27-4.846c0,0-0.594,3.359,0,7.584
	C178.937,29.313,175.115,24.138,171.987,22.824z"/>
<path fill="#989898" d="M167.873,53.602c0,0,3.761,2.957,7.959,2.957c0,0,1.681-5.914-0.511-5.914
	C175.321,50.645,174.117,48.563,167.873,53.602z"/>
<path fill="#161616" d="M188.794,29.834v11.39l3.016,1.476c0,0,14.537-6.524,19.769-15.056c0,0-2.302,2.847-7.558,4.708
	c0,0,1.971-1.972,3.394-3.395c0,0-8.871,2.301-9.419,4.162c0,0-1.861,2.519-4.93,2.519c0,0,0.438-3.395,3.507-4.38
	c3.065-0.986,0-0.438,0-0.438s-5.147,0.876-5.806,2.52C190.765,33.34,188.794,31.259,188.794,29.834z"/>
<path fill="#161616" d="M168.423,33.34c0,0-0.975,6.674,3.564,9.359c0,0,2.349,4.658-0.938,5.535c0,0-26.507,18.073-34.063,18.729
	c0,0,10.405-2.849,29.901-17.634c0,0-15.881,6.791-25.082,9.31c0,0,22.563-9.09,24.754-11.28c0,0-10.188,4.709-22.017,3.942
	c0,0,17.782-2.679,19.815-4.709c0,0-5.247,1.533-16.42,0c0,0,12.596,0.219,17.195-2.41c0,0-4.623-2.737-9.377-3.614
	c0,0,8.408,0.658,9.883,2.133c0,0-5.105-5.09-8.832-5.639c0,0,7.121,0.986,9.64,2.301c0,0-14.896-10.078-20.7-18.949
	c0,0,9.967,11.662,17.414,14.758c0,0-9.436-13.319-15.004-16.948c0,0,12.824,8.004,16.867,14.458c0,0-2.737-5.586-18.401-19.825
	C146.624,12.857,165.302,28.903,168.423,33.34z"/>
<path fill="#161616" d="M181.376,37.391c0,0,2.434-0.273,4.68,1.973c0,0-0.438-7.667,0-14.129c0,0-0.547,3.506-1.424,8.544
	c0,0-1.861-5.861-1.861-7.203c0,0,0.25,4.464,0.945,6.654c0,0-2.34-3.066-2.34-4.489c0,0,0.736,3.394,0.736,4.6
	c0,0-2.189-2.031-2.189-4.027C179.923,29.313,181.376,36.178,181.376,37.391z"/>
<path fill="#FFFFFF" d="M204.677,92.809c0,0-1.863-2.953-3.396,2.195c0,0-1.343,9.828,1.696,6.791
	C202.978,101.795,208.181,98.17,204.677,92.809z"/>
<path fill="#FFFFFF" d="M175.212,92.809c0,0-2.08-4.268-2.848,0.553c0,0-1.752,5.916,2.3,7.996c0,0,2.302,2.299,2.302-0.877
	C176.966,100.48,177.513,96.857,175.212,92.809z"/>
<path fill="#989898" d="M176.806,97.172c0,0,1.473,2.322,2.789,1.008c0,0,3.732-2.047,0.765-5.016c0,0-1.312,0.096-0.656-2.1
	c0,0,0.003-2.637-2.683-1.318c0,0-1.952,1.094-1.952,2.793C175.068,92.539,176.539,95.396,176.806,97.172z"/>
<path fill="#989898" d="M201.173,95.93c0,0-1.973-4.355-3.179-0.613c0,0-0.813,3.529,1.097,3.268c0,0,1.707,0.973,1.896-0.842
	L201.173,95.93z"/>
<path opacity="0.6" fill="#FFFFFF" enable-background="new    " d="M205.89,103.92c0,0,2.345-0.455,7.877,1.764
	c0,0,9.64,4.49,19.002,2.902c0,0-7.172,0.51-12.375-2.266c0,0,12.049,3.195,18.291-0.803c0,0-4.983,2.904-13.254,0
	c0,0,13.146-0.367,14.295-3.141c0,0-5.478,3.799-14.239,0.73c0,0,8.763-0.768,10.625-2.137c0,0-7.777,1.041-9.365,0
	c0,0,7.996-1.809,9.201-3.012c0,0-6.524,1.922-10.804,0.854c-0.068-0.018-0.137-0.035-0.205-0.053
	c-4.271-1.186,7.394-1.35,7.723-3.211c0,0-3.754,1.615-6.938,0.5c-0.078-0.029-0.158-0.059-0.237-0.09
	c-3.231-1.285,4.424-2.068,4.766-3.424c0,0-3.944,2.027-6.243,1.533c0,0,2.082-2.574,4.325-3.449c0,0-2.19,1.25-6.79,2.186
	c0,0,3.172-4.436,5.2-5.199c0,0-3.283,0.553-7.72,4.359c0,0,3.451-4.521,4.218-6.328c0,0-2.026,3.175-4.162,4.162
	c0,0,1.916-2.521,1.916-4.162c0,0-1.532,3.724-5.832,5.832c0,0,1.779-3.531,3.257-4.52c0,0-2.49,0.959-3.283,2.521
	c0,0-1.261-1.369,1.041-3.178c0,0-2.191,1.098-3.396,3.396c0,0-1.917-3.232,2.302-6.08c0,0-3.396,1.149-4.219,5.093
	C210.863,88.705,210.388,96.955,205.89,103.92z"/>
<path opacity="0.6" fill="#FFFFFF" enable-background="new    " d="M160.875,92.158c0,0-3.125-4.334-3.764-6.018
	c0,0,1.798,3.014,3.858,4.065c0,0-1.734-2.414-1.621-3.893c0,0,1.271,3.469,5.408,5.697c0,0-1.527-3.314-2.934-4.316
	c0,0,2.418,1.055,3.102,2.521c0,0,1.351-1.135-0.815-2.939c0,0,2.106,1.156,3.147,3.318c0,0,2.137-2.76-1.869-5.646
	c0,0,3.306,1.297,3.85,4.906c0,0-0.102,7.457,3.898,14.07c0,0-21.744-1.82-26.107-6.184c0,0,4.635,2.637,8.031,1.92
	c0,0-9.42-2.287-10.516-5.225c0,0,3.073,3.408,9.752,3.408c0,0-7.562-2.457-9.752-5.879c0,0,4.193,3.189,8.998,3.717
	c0,0-6.037-2.107-8.121-6.156c0,0,3.371,3.137,10.338,4.91c0,0-7.193-4.662-7.818-6.553c0,0,3.941,3.896,10.568,5.781
	s-6.298-4.25-7.393-6.33C151.116,87.338,157.489,92.158,160.875,92.158z"/>
<path fill="#161616" d="M171.987,102.971c0,0-11.645-1.029-15.258-3.309c0,0,7.475,1.654,9.611,1.654c0,0-7.412-1.932-8.215-2.734
	c0,0,6.489,1.434,8.461,1.844c0,0-8.789-3.424-8.789-4.463c0,0,6.572,2.938,8.789,3.699c0,0-3.921-2.465-5.082-5.08
	c0,0,3.027,3.367,5.165,4.193c0,0-0.268-2.441-2.311-5.611c0,0,3.542,3.859,3.542,4.902c0,0,0-2.242-1.561-5.363
	c0,0,1.125,2.107,1.838,3.012c0.076,0.098,0.148,0.182,0.215,0.248c0.672,0.67-0.215-2.271-0.215-3.996
	C168.179,91.967,170.324,102.561,171.987,102.971z"/>
<path fill="#161616" d="M207.741,102.971c0,0,2.22,0.041,3.861,0.883c0,0,4.437,2.404,6.406,2.404c0,0-3.758-1.416-5.134-2.793
	c0,0,6.586,2.219,9.57,2.137c0,0-8.461-2.258-10.679-3.223c0,0,8.377,0.633,10.679,1.475c0,0-1.313-1.572-8.789-2.172
	c0,0,3.368-1.256,6.569-1.256c0,0-2.299-0.986-6.898,0c0,0,3.861-2.221,7.475-2.221c0,0-3.683-1.092-8.377,0.639
	c0,0,1.807-3.906,5.994-4.406c0,0-4.152-0.289-7.474,3.031c0,0,0.711-3.367,2.465-4.684c0,0-1.315-0.16-2.876,3.533
	c0,0,0.697-3.818,1.232-4.352c0,0-0.575,0.254-2.547,6.615L207.741,102.971z"/>
<path fill="#909090" d="M181.496,112.131c0,0-2.177,7.846,5.381,5.381c0,0,0.328,0.959,3.778,0.479c0,0,5.824,2.301,5.824-5.826
	c0,0,0.092-7.633-3.961-9.166C192.519,102.998,182.632,98.811,181.496,112.131z"/>
<path fill="#F9F9F9" d="M183.427,107.928c0,0,2.301-4.602,6.9-3.943c0,0,1.9,0.336,3.505,1.939c0,0,1.699,5.672,0,7.371
	c0,0-0.011,3.066-4.989,3.066c0,0-4.76,0.814-4.76-1.973C184.083,114.391,182.769,112.42,183.427,107.928z"/>
<path fill="#161616" d="M191.861,105.408c0,0-4.272-2.738-7.229,1.752c0,0-0.547,7.23,1.973,7.777c0,0,3.121,1.367,5.258-0.768
	C191.861,114.172,194.888,108.436,191.861,105.408z"/>
<path fill="#161616" d="M184.582,110.332c0,0,3.404-5.271,8.539-0.137c0,0,0.438-3.691-1.149-4.678c0,0-4.219-2.738-7.285,1.588
	C184.685,107.105,184.28,110.033,184.582,110.332z"/>
<path fill="#161616" d="M204.019,93.471c0,0-0.795-1.041-1.698,0.711c0,0-1.423,5.326,1.116,4.49
	C203.437,98.672,207.017,96.469,204.019,93.471z"/>
<path fill="#161616" d="M174.255,94.346c0,0,1.891,2.107,1.532,4.982c0,0,0.071,0.605-0.744,0.139c0,0-2.542-1.068-1.774-4.711
	C173.269,94.756,173.706,93.277,174.255,94.346z"/>
<g>
	<g>
		<path d="M167.782,56.948c0,0,0.359-0.324,1.033-0.932c0.33-0.311,0.757-0.673,1.271-1.087c0.505-0.424,1.095-0.901,1.787-1.394
			c1.353-1.03,3.087-2.151,5.134-3.351c2.057-1.178,4.473-2.358,7.219-3.377c2.742-1.021,5.816-1.894,9.154-2.385
			c3.346-0.488,6.916-0.611,10.633-0.034c0.893,0.167,1.791,0.335,2.695,0.504l1.362,0.255c0.456,0.099,0.914,0.253,1.374,0.378
			c0.919,0.266,1.844,0.532,2.773,0.801c0.908,0.313,1.793,0.694,2.697,1.041c3.579,1.465,7.029,3.383,10.299,5.47
			c1.639,1.036,3.264,2.077,4.897,3.048c1.694,1.045,3.253,2.083,4.856,3.154c3.162,2.104,6.31,4.053,9.586,5.464
			c0.826,0.329,1.623,0.726,2.455,0.991c0.834,0.265,1.658,0.527,2.477,0.787c0.404,0.147,0.816,0.25,1.234,0.328
			c0.416,0.088,0.828,0.176,1.237,0.264c0.815,0.15,1.642,0.399,2.425,0.469c3.256,0.421,6.33,0.16,9.141-0.458
			c2.797-0.615,5.299-1.483,7.457-2.39c2.156-0.914,3.98-1.855,5.436-2.711c1.46-0.848,2.576-1.567,3.326-2.076
			c0.743-0.521,1.139-0.799,1.139-0.799s-0.378,0.303-1.087,0.869c-0.722,0.549-1.78,1.361-3.214,2.272
			c-1.423,0.929-3.214,1.963-5.354,2.989c-2.139,1.023-4.643,2.031-7.502,2.727c-2.828,0.717-6.105,1.084-9.461,0.743
			c-0.877-0.056-1.686-0.279-2.549-0.414c-0.427-0.078-0.854-0.157-1.287-0.235c-0.435-0.068-0.865-0.164-1.287-0.303
			c-0.854-0.251-1.715-0.505-2.584-0.762c-0.867-0.266-1.696-0.659-2.559-0.988c-3.404-1.42-6.709-3.355-9.882-5.468
			c-1.567-1.037-3.211-2.116-4.802-3.087c-1.686-0.989-3.321-2.026-4.957-3.055c-3.24-2.088-6.574-3.959-10.035-5.395
			c-0.871-0.34-1.73-0.711-2.602-1.023c-0.879-0.269-1.754-0.535-2.625-0.801c-0.438-0.127-0.861-0.281-1.31-0.385l-1.358-0.273
			c-0.902-0.184-1.799-0.365-2.688-0.543c-3.451-0.567-6.969-0.584-10.208-0.195c-3.257,0.386-6.288,1.152-9.009,2.076
			c-2.715,0.939-5.146,1.985-7.236,3.052c-2.074,1.089-3.85,2.122-5.236,3.081c-0.709,0.459-1.318,0.902-1.849,1.287
			c-0.536,0.379-0.983,0.715-1.333,1.004C168.16,56.647,167.782,56.948,167.782,56.948z"/>
	</g>
</g>
<g>
	<g>
		<path d="M160.524,64.93c0,0-0.506,0.456-1.454,1.312c-0.466,0.438-1.065,0.945-1.788,1.528c-0.711,0.597-1.542,1.271-2.516,1.961
			c-1.903,1.449-4.346,3.028-7.226,4.716c-2.896,1.656-6.294,3.319-10.16,4.752c-3.86,1.436-8.187,2.664-12.886,3.355
			c-4.697,0.693-9.755,0.844-14.943,0.062c-2.49-0.389-5.145-0.867-7.71-1.586c-2.585-0.668-5.149-1.55-7.667-2.584
			c-5.051-2.056-9.865-4.818-14.481-7.731c-2.31-1.458-4.583-2.942-6.888-4.302c-2.38-1.42-4.608-2.955-6.841-4.433
			c-4.448-2.952-8.854-5.747-13.474-7.722c-2.302-0.99-4.619-1.848-6.945-2.489c-1.151-0.366-2.327-0.588-3.471-0.881
			c-1.153-0.192-2.324-0.483-3.425-0.589c-0.581-0.068-1.158-0.135-1.731-0.202c-0.566-0.047-1.11-0.045-1.66-0.071
			c-1.09-0.076-2.194,0.014-3.271,0.047c-1.078,0.059-2.134,0.207-3.172,0.318c-1.028,0.191-2.049,0.32-3.03,0.551
			c-3.937,0.866-7.458,2.088-10.497,3.362c-3.035,1.287-5.603,2.612-7.649,3.815c-1.034,0.584-1.924,1.162-2.718,1.636
			c-0.773,0.507-1.43,0.938-1.963,1.287c-1.045,0.733-1.602,1.124-1.602,1.124s0.532-0.426,1.53-1.225
			c1.015-0.772,2.507-1.916,4.524-3.199c2.002-1.307,4.522-2.762,7.533-4.209c3.01-1.439,6.534-2.856,10.558-3.836
			c1-0.266,2.047-0.431,3.102-0.656c1.068-0.147,2.156-0.33,3.272-0.424c1.122-0.066,2.251-0.192,3.435-0.146
			c0.585,0.01,1.189-0.004,1.773,0.029c0.574,0.05,1.153,0.101,1.736,0.152c4.768,0.496,9.659,1.756,14.457,3.769
			c4.805,1.989,9.422,4.762,13.896,7.729c2.243,1.471,4.476,2.988,6.761,4.336c2.373,1.387,4.669,2.865,6.969,4.308
			c4.572,2.916,9.231,5.614,14.11,7.628c2.436,1.005,4.899,1.889,7.39,2.574c2.486,0.734,4.941,1.218,7.486,1.654
			c4.909,0.782,9.82,0.817,14.393,0.269c4.583-0.543,8.849-1.621,12.677-2.923c3.823-1.322,7.246-2.795,10.187-4.293
			c2.92-1.533,5.416-2.985,7.371-4.336c0.998-0.646,1.854-1.27,2.6-1.812c0.754-0.533,1.385-1.005,1.877-1.412
			C159.991,65.354,160.524,64.93,160.524,64.93z"/>
	</g>
</g>
</svg>
