<?xml version="1.0" encoding="utf-8"?>
<!-- Generator: Adobe Illustrator 16.0.4, SVG Export Plug-In . SVG Version: 6.00 Build 0)  -->
<!DOCTYPE svg PUBLIC "-//W3C//DTD SVG 1.1//EN" "http://www.w3.org/Graphics/SVG/1.1/DTD/svg11.dtd">
<svg version="1.1" id="Layer_1" xmlns="http://www.w3.org/2000/svg" xmlns:xlink="http://www.w3.org/1999/xlink" x="0px" y="0px"
	 width="144.27px" height="144.665px" viewBox="0 0 144.27 144.665" enable-background="new 0 0 144.27 144.665"
	 xml:space="preserve">
<circle fill="#231F20" cx="72.522" cy="72.708" r="69.373"/>
<ellipse opacity="0.1" fill="#FFFFFF" enable-background="new    " cx="72.522" cy="49.461" rx="64.896" ry="46.807"/>
<circle fill="none" stroke="#FFFFFF" stroke-width="0.6545" stroke-miterlimit="3" cx="72.522" cy="72.708" r="62.828"/>
<g enable-background="new    ">
	<path fill="#FFFFFF" d="M38.124,93.167v-2.113h2.612V80.988H27.635v10.065h2.843v2.113h-7.761v-2.113h2.497V68.387h-2.497v-2.113
		h7.761v2.113h-2.843v10.296h13.101V68.387h-2.612v-2.113H45.5v2.113h-2.343v22.666h2.728v2.113H38.124z"/>
	<path fill="#FFFFFF" d="M48.612,79.797c0-4.175,1.082-7.498,3.247-9.97c2.164-2.472,4.86-3.707,8.087-3.707
		c7.555,0,11.333,4.559,11.333,13.677c0,4.148-1.076,7.44-3.227,9.873c-2.151,2.434-4.854,3.649-8.106,3.649
		C52.39,93.32,48.612,88.813,48.612,79.797z M51.224,79.72c0,7.53,2.907,11.295,8.721,11.295c2.51,0,4.591-0.999,6.243-2.997
		c1.652-1.997,2.478-4.764,2.478-8.298c0-7.53-2.907-11.295-8.721-11.295c-2.51,0-4.591,1.006-6.243,3.016
		C52.051,73.452,51.224,76.211,51.224,79.72z"/>
	<path fill="#FFFFFF" d="M96.097,93.167v-2.113h2.459V70.73l-8.76,17.403h-2.612L78.426,70.73v20.323h3.15v2.113h-7.762v-2.113h2.19
		V68.387h-2.19v-2.113h4.803l9.873,19.67l9.874-19.67h5.071v2.113h-2.459v22.666h2.881v2.113H96.097z"/>
	<path fill="#FFFFFF" d="M106.931,68.387v-2.113h16.327l-0.038,0.23l0.499,5.302l-1.921,0.308l-0.461-3.727h-9.451v10.296h8.375
		v-2.421h2.113v6.608h-2.113v-2.074h-8.375v10.257h10.488l0.576-4.802l1.883,0.192l-0.576,6.723h-17.326v-2.113h2.343V68.387
		H106.931z"/>
</g>
<g enable-background="new    ">
	<path fill="#FFFFFF" d="M41.831,39.531v-1.404h3.707v8.144c1.123-0.917,2.377-1.376,3.763-1.376c1.272,0,2.471,0.394,3.594,1.18
		c0.599,0.431,1.081,1.104,1.446,2.021c0.365,0.917,0.547,2.031,0.547,3.342c0,2.49-0.618,4.362-1.854,5.616
		c-1.404,1.423-3.183,2.134-5.335,2.134c-0.805,0-1.605-0.065-2.401-0.196c-0.796-0.131-1.325-0.281-1.586-0.449V39.531H41.831z
		 M45.538,47.252v10.362c0.542,0.131,1.132,0.196,1.769,0.196c1.853,0,3.275-0.543,4.268-1.629c0.992-1.085,1.488-2.62,1.488-4.604
		c0-2.303-0.674-3.81-2.022-4.521c-0.655-0.355-1.446-0.533-2.373-0.533S46.698,46.766,45.538,47.252z"/>
	<path fill="#FFFFFF" d="M60.982,59.299c-2.49,0-3.81-0.982-3.959-2.948c-0.019-0.131-0.028-0.262-0.028-0.394
		c0-1.572,0.945-2.62,2.836-3.145c1.048-0.262,3.07-0.562,6.065-0.898v-2.162c0-2.041-1.067-3.062-3.201-3.062
		c-1.536,0.02-3.164,0.375-4.886,1.067l-0.478-1.207l0.281-0.112c1.46-0.637,2.574-1.021,3.341-1.151s1.329-0.201,1.685-0.211
		c0.355-0.009,0.697-0.005,1.025,0.014c0.327,0.02,0.753,0.104,1.277,0.253c0.524,0.15,0.978,0.36,1.362,0.632
		s0.716,0.679,0.997,1.222s0.421,1.188,0.421,1.938v8.648h2.162v1.404h-3.707l-0.281-1.067
		C64.211,58.906,62.573,59.299,60.982,59.299z M61.488,58.007c1.422,0,2.892-0.317,4.409-0.954v-4.016
		c-2.808,0.094-4.624,0.28-5.448,0.562c-0.637,0.168-1.086,0.473-1.348,0.912c-0.262,0.44-0.393,0.791-0.393,1.054
		c0,0.262,0,0.439,0,0.533c0.056,0.674,0.346,1.161,0.871,1.46C60.102,57.858,60.739,58.007,61.488,58.007z"/>
	<path fill="#FFFFFF" d="M77.746,46.664c-1.592,0-2.879,0.528-3.861,1.586s-1.474,2.541-1.474,4.451c0,3.313,1.544,4.97,4.633,4.97
		c1.198,0,2.199-0.098,3.005-0.295c0.805-0.196,1.244-0.322,1.319-0.379l0.394,1.32c-0.432,0.28-1.143,0.515-2.135,0.701
		c-0.992,0.188-1.891,0.281-2.695,0.281s-1.535-0.084-2.19-0.253c-0.655-0.168-1.315-0.468-1.979-0.898
		c-0.665-0.431-1.193-1.109-1.586-2.036c-0.394-0.926-0.59-2.054-0.59-3.383c0-2.453,0.627-4.306,1.881-5.561
		c1.404-1.441,3.173-2.162,5.307-2.162c0.674,0,1.391,0.089,2.148,0.267c0.758,0.179,1.344,0.454,1.756,0.828v3.679l-1.377,0.197
		l-0.141-2.949C79.392,46.785,78.588,46.664,77.746,46.664z"/>
	<path fill="#FFFFFF" d="M90.859,46.551v-1.404h5.896v1.404h-2.639l-4.718,5.166l5.335,6.065h2.668v1.404h-3.566l-6.262-7.47v6.065
		h2.105v1.404h-5.672v-1.404h1.741V39.531h-1.882v-1.404h3.707v13.591l4.437-5.166H90.859z"/>
</g>
</svg>
